<?xml version="1.0" encoding="UTF-8"?>
<svg id="Layer_2" data-name="Layer 2" xmlns="http://www.w3.org/2000/svg" viewBox="0 0 217.48 168.12">
  <defs>
    <style>
      .cls-1 {
        fill: #8b5e34;
      }
    </style>
  </defs>
  <g id="Layer_1-2" data-name="Layer 1">
    <path class="cls-1" d="M217.46,83.57c-.18-2.5-1.02-4.35-2.97-5.81-3.45-2.58-7.31-4.47-10.99-6.66-9.74-5.82-16.84-13.59-18.86-25.19-.56-3.22-.46-6.45-.44-9.69,0-.79.05-1.57.06-2.36.19-10.81-5.48-15.27-15.94-12.38-8.2,2.26-15.03,7.02-21.42,12.41-10.31,8.69-18.58,18.99-23.9,31.49-.2.46-.72,1.87-.72,1.87-3.73-2.7-10.26-9.11-10.26-9.11,0,0,1.79-2.54,2.78-3.82,4.16-5.39,7.49-11.2,9.07-17.89,2.96-12.52-1.25-22.89-9.72-31.92-1.59-1.7-1.35-1.47-5.3-4.5-.03.01-.07.03-.1.04-.03-.01-.07-.03-.1-.04-3.95,3.04-3.71,2.8-5.3,4.5-8.46,9.03-12.68,19.4-9.72,31.92,1.58,6.69,4.91,12.5,9.07,17.89.99,1.28,2.78,3.82,2.78,3.82,0,0-6.53,6.41-10.26,9.11,0,0-.52-1.4-.72-1.87-5.32-12.51-13.59-22.8-23.9-31.49-6.39-5.39-13.22-10.15-21.42-12.41-10.47-2.88-16.13,1.58-15.94,12.38.01.79.05,1.58.06,2.36.03,3.24.12,6.47-.44,9.69-2.02,11.6-9.12,19.37-18.86,25.19-3.68,2.2-7.54,4.08-10.99,6.66-1.95,1.46-2.79,3.31-2.97,5.81-.29,3.91,1.67,6.24,4.66,8.13,4.66,2.95,9.62,5.36,14.09,8.64,9.67,7.08,14.58,16.51,14.55,28.49,0,2.89-.19,5.78-.05,8.66.32,6.49,4.24,10.09,10.7,10,2.92-.04,5.76-.63,8.41-1.83,19.2-8.65,32.65-23.05,41.7-41.84.4-.83,1.23-2.59,1.23-2.59,3.51,2.44,7.22,5.51,10.43,8.84-7.39,8.88-13.16,18.28-13.08,30.24.06,10.54,6.4,23.78,16.08,27.8,9.68-4.03,16.01-17.26,16.08-27.8.07-11.96-5.69-21.37-13.08-30.24,3.21-3.33,6.92-6.4,10.43-8.84,0,0,.83,1.76,1.23,2.59,9.05,18.78,22.5,33.18,41.7,41.84,2.65,1.2,5.49,1.79,8.41,1.83,6.47.09,10.39-3.51,10.7-10,.14-2.88-.05-5.77-.05-8.66-.03-11.99,4.88-21.42,14.55-28.49,4.47-3.27,9.44-5.69,14.09-8.64,2.99-1.89,4.94-4.22,4.66-8.13ZM24.13,69.19c8.41-7.22,12.97-16.33,13.41-27.42.13-3.32-.05-6.64-.02-9.97.06-5.28,2.97-7.62,8.21-6.68,4.28.77,8.2,2.51,11.86,4.77,14.04,8.66,24.85,20.29,32.05,35.18.71,1.47.9,2.01,1.76,4.77-6.45,4.66-13.69,8.59-20.99,11.84-15.51-6.41-32.27-10.95-49.18-10.17,0,0,2.2-1.74,2.89-2.33ZM11.63,89.45c-2.56-1.19-4.77-2.84-6.44-5.32,1.78-2.74,4.22-4.36,6.97-5.57,6.18-2.72,12.71-3.06,19.3-2.62,10.55.7,20.66,3.43,30.54,7.08.62.23,2.52,1.07,2.52,1.07-2.74,1.57-6.55,2.57-9.51,3.51-9.89,3.11-19.97,5.15-30.41,4.74-4.5-.18-8.86-.97-12.97-2.88ZM86.97,108.29c-7.95,13.49-18.58,24.26-32.43,31.71-2.79,1.5-5.75,2.58-8.89,3.1-5.27.88-8.09-1.46-8.12-6.8-.04-6.29.5-12.58-1.34-18.77-2.11-7.09-5.86-13.04-11.41-17.9-.9-.78-3.54-3.14-3.54-3.14,17.12.77,33.66-3.6,49.16-9.94,7.35,3.17,14.33,7.05,21.03,11.72-.99,3.77-2.65,6.93-4.46,10.01ZM92.91,93.67c-5.8-3.29-11.19-6.35-16.96-9.62,5.8-3.01,11.13-6.06,16.76-9.54,2.02,6.56,1.72,12.62.2,19.16ZM108.74,5.78c15.82,12.47,15.2,33.57,0,48.37-15.2-14.8-15.82-35.9,0-48.37ZM108.74,162.44c-14.97-7.4-15.11-36.12,0-48.54,15.11,12.43,14.97,41.15,0,48.54ZM120.66,96.49c-4.09,3.43-7.93,6.64-11.92,9.99-4-3.35-7.83-6.56-11.92-9.99,2.08-8.14,2.15-16.46,0-24.7,4.04-3.42,7.89-6.68,11.93-10.1,4.03,3.41,7.88,6.67,11.93,10.1-2.16,8.24-2.08,16.56,0,24.7ZM127.84,65.07c7.2-14.9,18.01-26.53,32.05-35.18,3.66-2.26,7.58-4,11.86-4.77,5.24-.94,8.15,1.4,8.21,6.68.04,3.32-.15,6.65-.02,9.97.44,11.09,5.01,20.2,13.41,27.42.69.6,2.89,2.33,2.89,2.33-16.91-.78-33.67,3.76-49.18,10.17-7.3-3.25-14.54-7.18-20.99-11.84.87-2.76,1.05-3.3,1.76-4.77ZM124.77,74.5c5.63,3.48,10.96,6.53,16.76,9.54-5.77,3.27-11.16,6.33-16.96,9.62-1.52-6.54-1.82-12.6.2-19.16ZM192.71,99.63c-5.55,4.86-9.3,10.81-11.41,17.9-1.84,6.19-1.3,12.48-1.34,18.77-.03,5.34-2.85,7.68-8.12,6.8-3.13-.52-6.1-1.6-8.89-3.1-13.86-7.45-24.49-18.22-32.43-31.71-1.81-3.08-3.47-6.25-4.46-10.01,6.7-4.66,13.68-8.54,21.03-11.72,15.5,6.34,32.04,10.71,49.16,9.94,0,0-2.64,2.35-3.54,3.14ZM205.85,89.45c-4.11,1.91-8.47,2.7-12.97,2.88-10.45.41-20.52-1.63-30.41-4.74-2.97-.93-6.77-1.94-9.51-3.51,0,0,1.9-.84,2.52-1.07,9.88-3.64,19.99-6.38,30.54-7.08,6.59-.44,13.13-.09,19.3,2.62,2.74,1.21,5.19,2.83,6.97,5.57-1.67,2.48-3.88,4.13-6.44,5.32Z"/>
  </g>
</svg>
