<?xml version="1.0" encoding="UTF-8"?>
<svg id="Layer_2" data-name="Layer 2" xmlns="http://www.w3.org/2000/svg" viewBox="0 0 574.72 69.38">
  <defs>
    <style>
      .cls-1 {
        fill: #8b5e34;
      }
    </style>
  </defs>
  <g id="Layer_1-2" data-name="Layer 1">
    <g>
      <path class="cls-1" d="M49.09.48v1.93L10.53,66.67h18.94c3.03,0,5.49-.32,7.39-.97,1.9-.64,3.41-1.66,4.54-3.04,1.13-1.38,1.98-3.24,2.56-5.56.58-2.32,1.03-5.15,1.35-8.5h2.22c-.19,2-.29,4.64-.29,7.92,0,1.23.05,2.98.15,5.27.1,2.29.27,4.65.53,7.1-2.38-.13-4.99-.21-7.83-.24-2.84-.03-5.65-.05-8.46-.05h-7.78c-3.8,0-7.81.02-12.03.05-4.22.03-8.16.11-11.84.24v-1.93L38.84,2.71h-18.84c-3.03,0-5.49.32-7.39.97-1.9.64-3.42,1.66-4.54,3.04-1.13,1.39-1.98,3.24-2.56,5.56-.58,2.32-1.03,5.15-1.35,8.5H1.93c.13-1.03.21-2.22.24-3.58.03-1.35.05-2.8.05-4.35,0-1.22-.05-2.98-.14-5.27-.1-2.28-.28-4.65-.53-7.1,2.38.06,4.99.13,7.83.19,2.83.06,5.67.1,8.5.1h7.73c3.67,0,7.62-.01,11.84-.05,4.22-.03,8.1-.11,11.64-.24Z"/>
      <path class="cls-1" d="M150.06.48c-.26,2.26-.43,4.44-.53,6.57-.1,2.13-.14,3.74-.14,4.83,0,1.16.03,2.27.1,3.33.06,1.06.13,1.95.19,2.66h-2.22c-.39-3.8-.93-6.81-1.64-9.04-.71-2.22-1.92-3.8-3.62-4.73-1.71-.93-4.27-1.4-7.68-1.4h-8.02c-2.19,0-3.85.18-4.98.53-1.13.35-1.88,1.1-2.27,2.22-.39,1.13-.58,2.88-.58,5.27v47.93c0,2.32.19,4.06.58,5.22.39,1.16,1.14,1.92,2.27,2.27,1.13.35,2.79.53,4.98.53h7.05c4.06,0,7.13-.55,9.23-1.64,2.09-1.09,3.61-2.88,4.54-5.36.93-2.48,1.63-5.85,2.08-10.1h2.22c-.19,1.74-.29,4.06-.29,6.96,0,1.23.05,2.98.14,5.27.1,2.29.27,4.65.53,7.1-3.29-.13-6.99-.21-11.11-.24-4.12-.03-7.8-.05-11.02-.05h-5.46c-2.22,0-4.62.02-7.2.05-2.58.03-5.19.06-7.83.1-2.64.03-5.15.08-7.54.15v-1.93c2.19-.13,3.85-.39,4.98-.77,1.13-.39,1.88-1.16,2.27-2.32.39-1.16.58-2.9.58-5.22V10.73c0-2.38-.19-4.14-.58-5.27-.39-1.13-1.14-1.9-2.27-2.32-1.13-.42-2.79-.66-4.98-.72V.48c2.38.06,4.89.11,7.54.14,2.64.03,5.25.07,7.83.1,2.58.03,4.98.05,7.2.05h5.46c2.96,0,6.33-.01,10.1-.05,3.77-.03,7.13-.11,10.1-.24ZM133.44,33.53v1.93h-17.68v-1.93h17.68ZM136.24,20.77c-.26,3.67-.37,6.47-.34,8.41.03,1.93.05,3.71.05,5.31s.03,3.38.1,5.31c.06,1.93.23,4.73.48,8.41h-2.22c-.26-2.06-.56-4.07-.92-6.04-.36-1.96-1.13-3.58-2.32-4.83-1.19-1.26-3.2-1.88-6.04-1.88v-1.93c2.13,0,3.75-.43,4.88-1.3,1.13-.87,1.95-1.98,2.46-3.33.51-1.35.87-2.75,1.06-4.2.19-1.45.39-2.75.58-3.91h2.22Z"/>
      <path class="cls-1" d="M265.82.48v1.93c-2.19.06-3.85.39-4.98.97-1.13.58-1.88,1.52-2.27,2.8-.39,1.29-.58,3.13-.58,5.51v57.69h-2.22L215.18,6.67v51.02c0,2.32.21,4.14.63,5.46.42,1.32,1.26,2.26,2.51,2.8,1.26.55,3.14.89,5.65,1.01v1.93c-1.16-.13-2.67-.21-4.54-.24-1.87-.03-3.64-.05-5.31-.05s-3.24.02-4.88.05c-1.64.03-3.01.11-4.11.24v-1.93c2.19-.13,3.85-.47,4.98-1.01,1.13-.55,1.88-1.48,2.27-2.8.39-1.32.58-3.14.58-5.46V10.73c0-2.38-.19-4.14-.58-5.27-.39-1.13-1.14-1.9-2.27-2.32-1.13-.42-2.79-.66-4.98-.72V.48c1.09.06,2.46.13,4.11.19,1.64.06,3.27.1,4.88.1,1.42,0,2.77-.03,4.06-.1,1.29-.06,2.45-.13,3.48-.19l34.11,52.56V11.69c0-2.38-.21-4.22-.63-5.51-.42-1.29-1.26-2.22-2.51-2.8-1.26-.58-3.14-.9-5.65-.97V.48c1.16.06,2.69.13,4.59.19,1.9.06,3.66.1,5.27.1s3.33-.03,4.98-.1c1.64-.06,2.98-.13,4.01-.19Z"/>
      <path class="cls-1" d="M344.37,0l23.58,60.78c.97,2.45,2.06,4.07,3.29,4.88,1.22.81,2.35,1.24,3.38,1.3v1.93c-1.29-.13-2.87-.21-4.73-.24-1.87-.03-3.74-.05-5.6-.05-2.51,0-4.86.02-7.05.05-2.19.03-3.96.11-5.32.24v-1.93c3.29-.13,5.38-.69,6.28-1.69.9-1,.71-3.14-.58-6.43l-17.97-48.02,1.55-1.26-16.81,43.67c-1.03,2.58-1.64,4.75-1.84,6.52-.19,1.77-.02,3.17.53,4.2.55,1.03,1.48,1.77,2.8,2.22,1.32.45,2.98.71,4.97.77v1.93c-1.8-.13-3.69-.21-5.65-.24-1.97-.03-3.78-.05-5.46-.05s-2.98.02-4.11.05c-1.13.03-2.17.11-3.14.24v-1.93c1.29-.32,2.61-1.08,3.96-2.27,1.35-1.19,2.57-3.24,3.67-6.14L342.82,0h1.55ZM356.16,41.07v1.93h-28.79l.97-1.93h27.83Z"/>
      <path class="cls-1" d="M420.61.48c1.35.06,3.12.13,5.32.19,2.19.06,4.35.1,6.47.1,3.03,0,5.93-.03,8.7-.1,2.77-.06,4.73-.1,5.89-.1,7.79,0,13.63,1.77,17.49,5.31,3.87,3.54,5.8,8.12,5.8,13.72,0,2.32-.39,4.75-1.16,7.3-.77,2.55-2.11,4.9-4.01,7.05-1.9,2.16-4.49,3.91-7.78,5.27-3.29,1.35-7.44,2.03-12.47,2.03h-9.28v-1.93h8.31c4.57,0,8.07-.87,10.48-2.61,2.41-1.74,4.06-4.03,4.93-6.86.87-2.83,1.31-5.89,1.31-9.18,0-6.12-1.21-10.69-3.62-13.72-2.42-3.03-6.56-4.54-12.42-4.54-2.96,0-4.9.55-5.8,1.64-.9,1.1-1.35,3.32-1.35,6.67v47.93c0,2.32.24,4.06.72,5.22.48,1.16,1.43,1.93,2.85,2.32,1.42.39,3.48.65,6.18.77v1.93c-1.68-.13-3.8-.21-6.38-.24-2.58-.03-5.19-.05-7.83-.05s-4.86.02-7.05.05c-2.19.03-3.96.11-5.32.24v-1.93c2.19-.13,3.85-.39,4.98-.77,1.13-.39,1.88-1.16,2.27-2.32s.58-2.9.58-5.22V10.73c0-2.38-.19-4.14-.58-5.27-.39-1.13-1.14-1.9-2.27-2.32-1.13-.42-2.79-.66-4.98-.72V.48Z"/>
      <path class="cls-1" d="M574.72.48c-.26,2.45-.44,4.82-.53,7.1-.1,2.29-.14,4.04-.14,5.27,0,1.55.03,3,.1,4.35.06,1.35.13,2.55.19,3.58h-2.22c-.45-4.51-1.06-8.07-1.84-10.68-.77-2.61-2.12-4.49-4.06-5.65-1.93-1.16-4.93-1.74-8.98-1.74h-5.22v54.98c0,2.58.24,4.51.72,5.8.48,1.29,1.43,2.16,2.85,2.61,1.42.45,3.48.74,6.18.87v1.93c-1.67-.13-3.8-.21-6.38-.24-2.58-.03-5.19-.05-7.83-.05-2.9,0-5.62.02-8.16.05-2.55.03-4.59.11-6.14.24v-1.93c2.71-.13,4.77-.42,6.18-.87,1.42-.45,2.37-1.32,2.85-2.61.48-1.29.72-3.22.72-5.8V2.71h-5.22c-4,0-6.97.58-8.94,1.74-1.97,1.16-3.33,3.04-4.11,5.65-.77,2.61-1.39,6.17-1.84,10.68h-2.22c.13-1.03.21-2.22.24-3.58s.05-2.8.05-4.35c0-1.22-.05-2.98-.15-5.27-.1-2.28-.27-4.65-.53-7.1,2.7.06,5.65.13,8.84.19,3.19.06,6.39.1,9.61.1h17.54c3.19,0,6.39-.03,9.61-.1,3.22-.06,6.15-.13,8.79-.19Z"/>
    </g>
  </g>
</svg>
